<?xml version="1.0" encoding="utf-8"?>
<!-- Generator: Adobe Illustrator 22.0.1, SVG Export Plug-In . SVG Version: 6.00 Build 0)  -->
<svg version="1.1" id="Layer_1" xmlns="http://www.w3.org/2000/svg" xmlns:xlink="http://www.w3.org/1999/xlink" x="0px" y="0px"
	 viewBox="0 0 180 180" style="enable-background:new 0 0 180 180;" xml:space="preserve">
<style type="text/css">
	.st0{fill:#5BA8D8;}
</style>
<g>
	<path class="st0" d="M163.9,21.1h-23.4v-8.6c0-1.4-1.1-2.6-2.6-2.6H42c-1.4,0-2.6,1.1-2.6,2.6v8.6H16.1c-3.3,0-6.1,2.7-6.1,6.1
		v112.1c0,3.3,2.7,6.1,6.1,6.1h55.8v19.5H47.8c-1.4,0-2.6,1.1-2.6,2.6c0,1.4,1.1,2.6,2.6,2.6h73.2c1.4,0,2.6-1.1,2.6-2.6
		c0-1.4-1.1-2.6-2.6-2.6h-12.8v-19.5h10.5c1.4,0,2.6-1.1,2.6-2.6s-1.1-2.6-2.6-2.6H16.1c-0.5,0-1-0.4-1-1V27.2c0-0.5,0.4-1,1-1h23.4
		v93.2H23.1c-1.4,0-2.6,1.1-2.6,2.6c0,1.4,1.1,2.6,2.6,2.6h95.6c1.4,0,2.6-1.1,2.6-2.6c0-1.4-1.1-2.6-2.6-2.6h-20V98.6
		c0-1.4-1.1-2.6-2.6-2.6H55.7c-1.4,0-2.6,1.1-2.6,2.6v20.9h-8.5V23.7c0,0,0-8.6,0-8.6h90.8v23.3c0,1.4,1.1,2.6,2.6,2.6
		c1.4,0,2.6-1.1,2.6-2.6V26.2h23.4c0.5,0,1,0.4,1,1v112.1c0,0.5-0.4,1-1,1h-6.7c-1.4,0-2.6,1.1-2.6,2.6c0,1.4,1.1,2.6,2.6,2.6h6.7
		c3.3,0,6.1-2.7,6.1-6.1V27.2C170,23.9,167.3,21.1,163.9,21.1z M103.1,164.9H76.9v-19.5h26.1V164.9z M58.2,101.2h35.3v18.3H58.2
		V101.2z"/>
	<path class="st0" d="M149.5,70.8c0,0,0-0.1,0-0.1c0-0.1,0-0.1,0-0.2c0,0,0-0.1,0-0.1c0-0.1,0-0.1-0.1-0.2c0,0,0,0,0-0.1l0,0
		c0,0,0,0,0,0l-9-22.5c-0.4-1-1.3-1.6-2.4-1.6s-2,0.6-2.4,1.6l-9.1,22.5c0,0,0,0,0,0c0,0,0,0,0,0.1c0,0.1,0,0.1-0.1,0.2
		c0,0,0,0.1,0,0.1c0,0.1,0,0.1,0,0.2c0,0,0,0.1,0,0.1c0,0,0,0.1,0,0.1c0,0.1,0,0.2,0,0.3v87.2c0,6.4,5.2,11.6,11.6,11.6
		c6.4,0,11.6-5.2,11.6-11.6V71.2c0-0.1,0-0.2,0-0.3C149.6,70.9,149.5,70.8,149.5,70.8L149.5,70.8z M131.4,73.7h13v72.9h-13V73.7z
		 M138,55.4l5.3,13.2h-10.6L138,55.4z M138,164.9c-3.6,0-6.5-2.9-6.5-6.5v-6.6h13v6.6C144.5,162,141.5,164.9,138,164.9z"/>
	<path class="st0" d="M55.7,46.7h68.7c1.4,0,2.6-1.1,2.6-2.6v-18c0-1.4-1.1-2.6-2.6-2.6H55.7c-1.4,0-2.6,1.1-2.6,2.6v18
		C53.1,45.6,54.3,46.7,55.7,46.7L55.7,46.7z M58.2,28.7h63.6v12.9H58.2L58.2,28.7L58.2,28.7z"/>
	<path class="st0" d="M124.3,51.8H55.7c-1.4,0-2.6,1.1-2.6,2.6s1.1,2.6,2.6,2.6h68.7c1.4,0,2.6-1.1,2.6-2.6S125.7,51.8,124.3,51.8z"
		/>
	<path class="st0" d="M96.1,65.4H55.7c-1.4,0-2.6,1.1-2.6,2.6c0,1.4,1.1,2.6,2.6,2.6h40.4c1.4,0,2.6-1.1,2.6-2.6
		C98.6,66.6,97.5,65.4,96.1,65.4z"/>
	<path class="st0" d="M119.2,65.4h-12.9c-1.4,0-2.6,1.1-2.6,2.6c0,1.4,1.1,2.6,2.6,2.6h12.9c1.4,0,2.6-1.1,2.6-2.6
		C121.7,66.6,120.6,65.4,119.2,65.4z"/>
	<path class="st0" d="M96.1,75.6H55.7c-1.4,0-2.6,1.1-2.6,2.6c0,1.4,1.1,2.6,2.6,2.6h40.4c1.4,0,2.6-1.1,2.6-2.6
		C98.6,76.8,97.5,75.6,96.1,75.6z"/>
	<path class="st0" d="M118.7,75.6h-12.4c-1.4,0-2.6,1.1-2.6,2.6c0,1.4,1.1,2.6,2.6,2.6h12.4c1.4,0,2.6-1.1,2.6-2.6
		C121.2,76.8,120.1,75.6,118.7,75.6z"/>
	<path class="st0" d="M96.1,85.8H55.7c-1.4,0-2.6,1.1-2.6,2.6c0,1.4,1.1,2.6,2.6,2.6h40.4c1.4,0,2.6-1.1,2.6-2.6
		C98.6,87,97.5,85.8,96.1,85.8z"/>
	<path class="st0" d="M118.7,85.8h-12.4c-1.4,0-2.6,1.1-2.6,2.6c0,1.4,1.1,2.6,2.6,2.6h12.4c1.4,0,2.6-1.1,2.6-2.6
		C121.2,87,120.1,85.8,118.7,85.8z"/>
</g>
</svg>
