<?xml version="1.0" encoding="UTF-8"?>
<!DOCTYPE svg PUBLIC "-//W3C//DTD SVG 1.1//EN" "http://www.w3.org/Graphics/SVG/1.1/DTD/svg11.dtd">
<svg xmlns="http://www.w3.org/2000/svg" version="1.1" width="512px" height="512px" style="shape-rendering:geometricPrecision; text-rendering:geometricPrecision; image-rendering:optimizeQuality; fill-rule:evenodd; clip-rule:evenodd" xmlns:xlink="http://www.w3.org/1999/xlink">
<g><path style="opacity:0.985" fill="#438dfe" d="M 144.5,-0.5 C 148.5,-0.5 152.5,-0.5 156.5,-0.5C 161.686,1.84275 165.852,5.50941 169,10.5C 183,36.5 197,62.5 211,88.5C 224.621,147.61 238.621,206.61 253,265.5C 258.751,260.583 264.918,256.25 271.5,252.5C 271.725,220.51 274.059,188.677 278.5,157C 278.333,155.5 278.167,154 278,152.5C 262.074,133.6 259.407,112.933 270,90.5C 277.957,80.2079 286.29,70.2079 295,60.5C 304.234,48.863 310.067,35.6964 312.5,21C 311.064,15.563 310.564,10.063 311,4.5C 311.997,2.67694 313.164,1.01027 314.5,-0.5C 317.5,-0.5 320.5,-0.5 323.5,-0.5C 351.704,21.5734 369.537,50.2401 377,85.5C 379.845,111.952 373.178,135.619 357,156.5C 357.077,184.593 355.577,212.593 352.5,240.5C 362.319,242.44 371.652,245.773 380.5,250.5C 391.046,228.386 400.546,205.719 409,182.5C 412.099,169.898 414.766,157.231 417,144.5C 419.205,141.96 421.705,139.793 424.5,138C 443.833,126 463.167,114 482.5,102C 488.383,100.078 492.549,101.911 495,107.5C 500.375,130.662 505.875,153.662 511.5,176.5C 511.5,179.167 511.5,181.833 511.5,184.5C 500.98,197.238 492.147,211.238 485,226.5C 470.695,261.747 456.195,296.914 441.5,332C 444.144,346.043 444.144,360.043 441.5,374C 483.127,377.797 506.461,400.297 511.5,441.5C 511.5,441.833 511.5,442.167 511.5,442.5C 508.847,479.489 489.514,502.489 453.5,511.5C 321.167,511.5 188.833,511.5 56.5,511.5C 25.8333,504.167 6.83333,485.167 -0.5,454.5C -0.5,446.833 -0.5,439.167 -0.5,431.5C 7.56703,397.774 28.9004,378.774 63.5,374.5C 65.0085,379.212 67.1752,383.545 70,387.5C 75.4949,385.837 80.6616,383.504 85.5,380.5C 82.924,375.354 80.924,370.021 79.5,364.5C 80.4289,359.382 81.7622,354.382 83.5,349.5C 91.5126,332.82 102.846,318.82 117.5,307.5C 122.694,304.65 127.86,301.65 133,298.5C 132.305,294.073 130.971,289.74 129,285.5C 128.653,283.82 127.653,282.82 126,282.5C 120.195,284.371 114.695,286.704 109.5,289.5C 103.714,291.595 97.8807,293.595 92,295.5C 82.8017,292.494 81.3017,287.328 87.5,280C 93.0447,277.725 98.3781,275.225 103.5,272.5C 109.507,270.997 115.174,268.663 120.5,265.5C 118.739,260.21 116.406,255.21 113.5,250.5C 108.065,252.857 102.732,255.191 97.5,257.5C 91.1662,257.838 87.4995,254.838 86.5,248.5C 86.6668,246.022 87.6668,244.022 89.5,242.5C 95.719,239.876 101.719,236.876 107.5,233.5C 105.399,229.024 103.399,224.524 101.5,220C 95.1156,221.073 89.1156,223.24 83.5,226.5C 77.7257,228.592 71.8924,230.592 66,232.5C 56.2706,228.854 55.104,223.354 62.5,216C 67.8074,214.295 72.8074,212.129 77.5,209.5C 83.3944,207.756 89.061,205.423 94.5,202.5C 92.4979,197.162 89.9979,192.162 87,187.5C 81.565,189.472 76.3983,191.805 71.5,194.5C 58.2628,199.462 45.2628,204.796 32.5,210.5C 27.0651,212.053 22.0651,214.386 17.5,217.5C 21.5691,227.541 25.7357,237.541 30,247.5C 30.3637,259.863 25.197,262.863 14.5,256.5C 9.67723,244.68 4.67723,233.013 -0.5,221.5C -0.5,218.5 -0.5,215.5 -0.5,212.5C 0.921997,207.517 3.922,203.683 8.5,201C 34.7415,189.794 61.2415,179.294 88,169.5C 95.1184,170.055 100.452,173.389 104,179.5C 119.138,216.581 134.471,253.581 150,290.5C 150.893,291.081 151.893,291.415 153,291.5C 158.459,290.396 163.959,289.562 169.5,289C 155.597,230.553 141.764,172.053 128,113.5C 127.763,80.1326 128.763,46.7993 131,13.5C 133.687,6.98101 138.187,2.31434 144.5,-0.5 Z"/></g>
<g><path style="opacity:1" fill="#fafbff" d="M 160.5,33.5 C 160.5,41.5 160.5,49.5 160.5,57.5C 156.03,58.4861 151.363,58.8195 146.5,58.5C 146.322,45.141 146.822,31.8077 148,18.5C 149.667,15.8333 151.333,15.8333 153,18.5C 156.038,23.2432 158.538,28.2432 160.5,33.5 Z"/></g>
<g><path style="opacity:1" fill="#c6d7fc" d="M 323.5,144.5 C 326.044,144.896 328.211,144.229 330,142.5C 332.372,139.09 334.205,135.423 335.5,131.5C 346.566,115.899 350.733,98.5656 348,79.5C 346.189,75.345 343.023,73.345 338.5,73.5C 336.405,64.303 332.905,55.6364 328,47.5C 327.241,45.9371 326.074,44.9371 324.5,44.5C 326.317,39.572 327.984,34.572 329.5,29.5C 349.926,50.6897 360.093,76.023 360,105.5C 357.995,120.198 352.495,133.364 343.5,145C 336.654,145.821 329.987,145.654 323.5,144.5 Z"/></g>
<g><path style="opacity:1" fill="#81adfa" d="M 160.5,33.5 C 164.192,39.0424 167.526,44.8758 170.5,51C 168.112,54.5439 164.778,56.7106 160.5,57.5C 160.5,49.5 160.5,41.5 160.5,33.5 Z"/></g>
<g><path style="opacity:1" fill="#e6ecfc" d="M 324.5,44.5 C 326.074,44.9371 327.241,45.9371 328,47.5C 332.905,55.6364 336.405,64.303 338.5,73.5C 335.805,73.933 333.638,75.2663 332,77.5C 331.667,85.1667 331.333,92.8333 331,100.5C 328.496,108.994 325.329,117.161 321.5,125C 323.189,133.343 327.855,135.509 335.5,131.5C 334.205,135.423 332.372,139.09 330,142.5C 328.211,144.229 326.044,144.896 323.5,144.5C 313.147,144.45 302.814,143.95 292.5,143C 280.201,129.12 278.367,113.953 287,97.5C 295.377,88.1249 303.377,78.4582 311,68.5C 316.286,60.9264 320.786,52.9264 324.5,44.5 Z"/></g>
<g><path style="opacity:1" fill="#c8d7fc" d="M 186.5,107.5 C 186.702,105.011 186.202,102.677 185,100.5C 181,93.1667 177,85.8333 173,78.5C 171.933,76.3083 170.433,74.6417 168.5,73.5C 172.149,71.9205 175.649,69.9205 179,67.5C 184.222,76.1088 189.055,84.9422 193.5,94C 192.582,99.3385 190.249,103.839 186.5,107.5 Z"/></g>
<g><path style="opacity:1" fill="#e6ecfc" d="M 168.5,73.5 C 170.433,74.6417 171.933,76.3083 173,78.5C 177,85.8333 181,93.1667 185,100.5C 186.202,102.677 186.702,105.011 186.5,107.5C 179.212,115.906 170.212,118.572 159.5,115.5C 159.01,102.801 159.01,89.8014 159.5,76.5C 155.958,76.8128 152.625,76.4794 149.5,75.5C 155.998,75.9185 162.332,75.2518 168.5,73.5 Z"/></g>
<g><path style="opacity:1" fill="#458efe" d="M 338.5,73.5 C 343.023,73.345 346.189,75.345 348,79.5C 350.733,98.5656 346.566,115.899 335.5,131.5C 327.855,135.509 323.189,133.343 321.5,125C 325.329,117.161 328.496,108.994 331,100.5C 331.333,92.8333 331.667,85.1667 332,77.5C 333.638,75.2663 335.805,73.933 338.5,73.5 Z"/></g>
<g><path style="opacity:1" fill="#fbfcfe" d="M 149.5,75.5 C 152.625,76.4794 155.958,76.8128 159.5,76.5C 159.01,89.8014 159.01,102.801 159.5,115.5C 153.495,114.016 148.662,110.682 145,105.5C 144.916,95.5059 145.083,85.5059 145.5,75.5C 146.833,75.5 148.167,75.5 149.5,75.5 Z"/></g>
<g><path style="opacity:1" fill="#7eabfa" d="M 200.5,197.5 C 201.097,197.265 201.43,196.765 201.5,196C 198.422,182.963 195.089,170.13 191.5,157.5C 189.268,149.073 187.268,140.573 185.5,132C 185.833,131.167 186.167,130.333 186.5,129.5C 191.445,126.776 195.945,123.443 200,119.5C 211.667,168.833 223.333,218.167 235,267.5C 236.328,272.792 236.995,278.126 237,283.5C 232.504,289.156 228.504,295.156 225,301.5C 217.142,266.736 208.975,232.07 200.5,197.5 Z"/></g>
<g><path style="opacity:1" fill="#fcfdfe" d="M 161.5,133.5 C 164.175,134.478 165.675,136.478 166,139.5C 177.941,190.486 189.774,241.486 201.5,292.5C 200.5,292.5 199.5,292.5 198.5,292.5C 195.213,291.839 191.88,291.339 188.5,291C 174.814,237.756 162.314,184.256 151,130.5C 154.239,132.352 157.739,133.352 161.5,133.5 Z"/></g>
<g><path style="opacity:1" fill="#e6ecfc" d="M 474.5,161.5 C 475.586,161.62 476.253,162.287 476.5,163.5C 478.481,169.742 479.647,176.075 480,182.5C 469.724,194.628 461.224,207.961 454.5,222.5C 452.955,223.452 451.288,223.785 449.5,223.5C 435.314,221.639 425.98,213.973 421.5,200.5C 426.733,185.137 430.733,169.471 433.5,153.5C 444.751,146.625 455.918,139.625 467,132.5C 463.955,141.947 460.289,151.28 456,160.5C 453.727,165.249 454.561,169.415 458.5,173C 463.324,175.446 467.491,174.613 471,170.5C 472.18,167.479 473.346,164.479 474.5,161.5 Z"/></g>
<g><path style="opacity:1" fill="#a3c1f7" d="M 161.5,133.5 C 164.272,133.22 166.772,133.887 169,135.5C 170.699,145.256 173.199,154.756 176.5,164C 184.323,168.423 189.323,166.256 191.5,157.5C 195.089,170.13 198.422,182.963 201.5,196C 201.43,196.765 201.097,197.265 200.5,197.5C 198.412,191.873 194.412,190.039 188.5,192C 185.613,193.709 184.279,196.209 184.5,199.5C 191.659,231.136 198.659,262.803 205.5,294.5C 202.933,294.279 200.599,293.612 198.5,292.5C 199.5,292.5 200.5,292.5 201.5,292.5C 189.774,241.486 177.941,190.486 166,139.5C 165.675,136.478 164.175,134.478 161.5,133.5 Z"/></g>
<g><path style="opacity:1" fill="#c7d7fc" d="M 449.5,223.5 C 451.288,223.785 452.955,223.452 454.5,222.5C 461.224,207.961 469.724,194.628 480,182.5C 479.647,176.075 478.481,169.742 476.5,163.5C 476.253,162.287 475.586,161.62 474.5,161.5C 477.757,154.237 480.924,146.904 484,139.5C 488.122,152.982 491.122,166.649 493,180.5C 483.125,193.073 474.625,206.573 467.5,221C 464.756,221.803 462.089,222.803 459.5,224C 455.973,224.808 452.64,224.641 449.5,223.5 Z"/></g>
<g><path style="opacity:1" fill="#e5ebfc" d="M 330.5,162.5 C 330.5,170.833 330.5,179.167 330.5,187.5C 318.099,187.844 305.766,187.177 293.5,185.5C 293.926,177.144 294.593,168.811 295.5,160.5C 307.355,160.547 319.022,161.214 330.5,162.5 Z"/></g>
<g><path style="opacity:1" fill="#c9d8fc" d="M 330.5,162.5 C 333.167,162.5 335.833,162.5 338.5,162.5C 338.5,170.833 338.5,179.167 338.5,187.5C 335.833,187.5 333.167,187.5 330.5,187.5C 330.5,179.167 330.5,170.833 330.5,162.5 Z"/></g>
<g><path style="opacity:1" fill="#c7d7fc" d="M 77.5,209.5 C 75.2259,204.617 73.2259,199.617 71.5,194.5C 76.3983,191.805 81.565,189.472 87,187.5C 89.9979,192.162 92.4979,197.162 94.5,202.5C 89.061,205.423 83.3944,207.756 77.5,209.5 Z"/></g>
<g><path style="opacity:1" fill="#e7ecfc" d="M 71.5,194.5 C 73.2259,199.617 75.2259,204.617 77.5,209.5C 72.8074,212.129 67.8074,214.295 62.5,216C 55.104,223.354 56.2706,228.854 66,232.5C 71.8924,230.592 77.7257,228.592 83.5,226.5C 86.8578,231.23 88.8578,236.563 89.5,242.5C 87.6668,244.022 86.6668,246.022 86.5,248.5C 87.4995,254.838 91.1662,257.838 97.5,257.5C 99.5013,262.505 101.501,267.505 103.5,272.5C 98.3781,275.225 93.0447,277.725 87.5,280C 81.3017,287.328 82.8017,292.494 92,295.5C 97.8807,293.595 103.714,291.595 109.5,289.5C 113.114,294.983 115.781,300.983 117.5,307.5C 102.846,318.82 91.5126,332.82 83.5,349.5C 66.2432,306.902 49.0766,264.235 32,221.5C 30.9766,217.683 31.4766,214.183 33.5,211C 33.2716,210.601 32.9382,210.435 32.5,210.5C 45.2628,204.796 58.2628,199.462 71.5,194.5 Z"/></g>
<g><path style="opacity:1" fill="#a3c1f7" d="M 316.5,204.5 C 320.634,205.485 324.968,205.818 329.5,205.5C 328.55,216.593 327.216,227.593 325.5,238.5C 313.583,238.306 302.083,240.306 291,244.5C 290.5,230.504 290.333,216.504 290.5,202.5C 299.149,203.387 307.815,204.054 316.5,204.5 Z"/></g>
<g><path style="opacity:1" fill="#7eabfa" d="M 316.5,204.5 C 323.5,204.5 330.5,204.5 337.5,204.5C 337.028,215.883 336.028,227.216 334.5,238.5C 331.5,238.5 328.5,238.5 325.5,238.5C 327.216,227.593 328.55,216.593 329.5,205.5C 324.968,205.818 320.634,205.485 316.5,204.5 Z"/></g>
<g><path style="opacity:0.985" fill="#fdfdfe" d="M 32.5,210.5 C 32.9382,210.435 33.2716,210.601 33.5,211C 31.4766,214.183 30.9766,217.683 32,221.5C 49.0766,264.235 66.2432,306.902 83.5,349.5C 81.7622,354.382 80.4289,359.382 79.5,364.5C 70.9096,346.971 63.0763,328.971 56,310.5C 51.9468,305.992 47.2801,305.326 42,308.5C 40.5886,310.65 39.7553,312.984 39.5,315.5C 34.9883,306.467 30.9883,297.134 27.5,287.5C 31.1046,291.708 35.4379,292.542 40.5,290C 44.5,285.333 44.5,280.667 40.5,276C 32.2056,272.788 27.539,275.621 26.5,284.5C 22.3228,275.32 18.3228,265.987 14.5,256.5C 25.197,262.863 30.3637,259.863 30,247.5C 25.7357,237.541 21.5691,227.541 17.5,217.5C 22.0651,214.386 27.0651,212.053 32.5,210.5 Z"/></g>
<g><path style="opacity:1" fill="#c7d7fc" d="M 89.5,242.5 C 88.8578,236.563 86.8578,231.23 83.5,226.5C 89.1156,223.24 95.1156,221.073 101.5,220C 103.399,224.524 105.399,229.024 107.5,233.5C 101.719,236.876 95.719,239.876 89.5,242.5 Z"/></g>
<g><path style="opacity:1" fill="#a3c1f7" d="M 448.5,240.5 C 442.438,255.849 436.271,271.183 430,286.5C 429.186,289.177 427.686,291.177 425.5,292.5C 417.959,279.957 408.293,269.29 396.5,260.5C 401.716,247.344 407.216,234.344 413,221.5C 422.287,232.441 434.121,238.774 448.5,240.5 Z"/></g>
<g><path style="opacity:1" fill="#7eabfa" d="M 448.5,240.5 C 452.514,240.334 456.514,240.501 460.5,241C 451.204,262.427 442.038,283.927 433,305.5C 430.672,301.02 428.172,296.687 425.5,292.5C 427.686,291.177 429.186,289.177 430,286.5C 436.271,271.183 442.438,255.849 448.5,240.5 Z"/></g>
<g><path style="opacity:1" fill="#c7d7fc" d="M 103.5,272.5 C 101.501,267.505 99.5013,262.505 97.5,257.5C 102.732,255.191 108.065,252.857 113.5,250.5C 116.406,255.21 118.739,260.21 120.5,265.5C 115.174,268.663 109.507,270.997 103.5,272.5 Z"/></g>
<g><path style="opacity:1" fill="#e7ecfc" d="M 352.5,258.5 C 399.272,287.731 416.605,329.398 404.5,383.5C 410.036,383.662 415.702,383.662 421.5,383.5C 421.441,387.548 423.108,390.715 426.5,393C 434.47,392.725 442.47,392.558 450.5,392.5C 481.683,418.713 485.849,448.713 463,482.5C 459.233,486.776 455.066,490.443 450.5,493.5C 320.207,494.663 189.873,494.83 59.5,494C 56.5432,493.721 53.8766,492.887 51.5,491.5C 52.2389,491.631 52.9056,491.464 53.5,491C 32.2461,472.412 25.7461,449.578 34,422.5C 38.4129,411.171 45.5796,402.004 55.5,395C 54.552,394.517 53.552,394.351 52.5,394.5C 57.0645,392.96 61.8979,392.293 67,392.5C 72.6146,392.361 78.1146,393.028 83.5,394.5C 88.0367,394.606 91.2034,392.606 93,388.5C 96.2602,343.242 120.093,316.075 164.5,307C 186.685,305.211 206.685,310.877 224.5,324C 228.505,325.098 232.005,324.265 235,321.5C 249.421,285.085 275.921,263.252 314.5,256C 327.316,254.895 339.982,255.728 352.5,258.5 Z"/></g>
<g><path style="opacity:1" fill="#c8d8fc" d="M 352.5,258.5 C 401.979,274.838 426.479,309.171 426,361.5C 424.817,368.914 423.317,376.247 421.5,383.5C 415.702,383.662 410.036,383.662 404.5,383.5C 416.605,329.398 399.272,287.731 352.5,258.5 Z"/></g>
<g><path style="opacity:1" fill="#458efe" d="M 308.5,272.5 C 313.408,271.874 317.908,272.874 322,275.5C 324.776,281.134 323.609,285.634 318.5,289C 298.327,289.993 285.494,300.159 280,319.5C 274.924,324.756 269.924,324.756 265,319.5C 265.715,302.256 273.548,289.089 288.5,280C 294.885,276.377 301.552,273.877 308.5,272.5 Z"/></g>
<g><path style="opacity:1" fill="#4b91ff" d="M 27.5,287.5 C 26.8902,286.609 26.5569,285.609 26.5,284.5C 27.539,275.621 32.2056,272.788 40.5,276C 44.5,280.667 44.5,285.333 40.5,290C 35.4379,292.542 31.1046,291.708 27.5,287.5 Z"/></g>
<g><path style="opacity:1" fill="#c7d7fc" d="M 117.5,307.5 C 115.781,300.983 113.114,294.983 109.5,289.5C 114.695,286.704 120.195,284.371 126,282.5C 127.653,282.82 128.653,283.82 129,285.5C 130.971,289.74 132.305,294.073 133,298.5C 127.86,301.65 122.694,304.65 117.5,307.5 Z"/></g>
<g><path style="opacity:1" fill="#4990ff" d="M 79.5,364.5 C 80.924,370.021 82.924,375.354 85.5,380.5C 80.6616,383.504 75.4949,385.837 70,387.5C 67.1752,383.545 65.0085,379.212 63.5,374.5C 55.1071,354.987 47.1071,335.32 39.5,315.5C 39.7553,312.984 40.5886,310.65 42,308.5C 47.2801,305.326 51.9468,305.992 56,310.5C 63.0763,328.971 70.9096,346.971 79.5,364.5 Z"/></g>
<g><path style="opacity:1" fill="#448efe" d="M 149.5,332.5 C 159.562,331.718 163.062,336.052 160,345.5C 155.753,348.708 151.253,351.542 146.5,354C 139.315,360.54 135.481,368.707 135,378.5C 131.987,383.535 127.82,384.702 122.5,382C 121.299,381.097 120.465,379.931 120,378.5C 118.11,363.11 123.277,350.61 135.5,341C 140.064,337.89 144.731,335.056 149.5,332.5 Z"/></g>
<g><path style="opacity:1" fill="#458efe" d="M 247.5,375.5 C 262.845,373.004 276.845,376.171 289.5,385C 293.046,388.882 296.879,392.382 301,395.5C 325.327,387.717 343.994,394.717 357,416.5C 358.447,425.72 354.614,429.553 345.5,428C 341.757,423.228 337.757,418.561 333.5,414C 322.04,407.453 311.04,408.12 300.5,416C 298.167,416.667 295.833,416.667 293.5,416C 289.215,409.446 284.215,403.446 278.5,398C 253.36,385.992 235.526,392.826 225,418.5C 224.833,420.5 224.667,422.5 224.5,424.5C 225.893,432.15 226.727,439.817 227,447.5C 221.924,452.756 216.924,452.756 212,447.5C 201.181,412.14 213.014,388.14 247.5,375.5 Z"/></g>
<g><path style="opacity:1" fill="#c8d8fc" d="M 450.5,392.5 C 477.325,398.16 491.991,414.66 494.5,442C 492.902,470.426 478.235,487.592 450.5,493.5C 455.066,490.443 459.233,486.776 463,482.5C 485.849,448.713 481.683,418.713 450.5,392.5 Z"/></g>
<g><path style="opacity:1" fill="#fbfdfe" d="M 52.5,394.5 C 53.552,394.351 54.552,394.517 55.5,395C 45.5796,402.004 38.4129,411.171 34,422.5C 25.7461,449.578 32.2461,472.412 53.5,491C 52.9056,491.464 52.2389,491.631 51.5,491.5C 28.9448,482.589 17.2781,465.923 16.5,441.5C 18.6486,418.17 30.6486,402.503 52.5,394.5 Z"/></g>
</svg>
